<?xml version="1.0" encoding="utf-8" ?>
<svg baseProfile="full" height="57.5mm" version="1.1" viewBox="0,0,306.20000000000005,57.5" width="306.20000000000005mm" xmlns="http://www.w3.org/2000/svg" xmlns:ev="http://www.w3.org/2001/xml-events" xmlns:xlink="http://www.w3.org/1999/xlink"><defs /><rect fill="#FFFFFF" height="57.5" width="306.20000000000005" x="0" y="0" /><text fill="#000000" style="font-size:6px; font-family:Arial; font-weight:bold;" x="10" y="10">热力图</text><text fill="#000000" style="font-size:3px; font-family:Arial;" x="10" y="14.4">2024: 409189 金币</text><text fill="#000000" style="font-size:2.5px; font-family:Arial" x="10" y="18.3">Jan</text><rect fill="#79ca7c" height="4" rx="1" ry="1" width="4" x="10" y="19.7"><title>2024-01-01 877 金币</title></rect><rect fill="#6ec171" height="4" rx="1" ry="1" width="4" x="10" y="25.1"><title>2024-01-02 1103 金币</title></rect><rect fill="#58ad5c" height="4" rx="1" ry="1" width="4" x="10" y="30.5"><title>2024-01-03 1189 金币</title></rect><rect fill="#57ad5b" height="4" rx="1" ry="1" width="4" x="10" y="35.9"><title>2024-01-04 1203 金币</title></rect><rect fill="#74c677" height="4" rx="1" ry="1" width="4" x="10" y="41.300000000000004"><title>2024-01-05 980 金币</title></rect><rect fill="#57ad5b" height="4" rx="1" ry="1" width="4" x="10" y="46.699999999999996"><title>2024-01-06 1210 金币</title></rect><rect fill="#73c576" height="4" rx="1" ry="1" width="4" x="10" y="52.1"><title>2024-01-07 991 金币</title></rect><rect fill="#58ae5c" height="4" rx="1" ry="1" width="4" x="15.4" y="19.7"><title>2024-01-08 1152 金币</title></rect><rect fill="#78c97b" height="4" rx="1" ry="1" width="4" x="15.4" y="25.1"><title>2024-01-09 901 金币</title></rect><rect fill="#57ad5b" height="4" rx="1" ry="1" width="4" x="15.4" y="30.5"><title>2024-01-10 1221 金币</title></rect><rect fill="#70c273" height="4" rx="1" ry="1" width="4" x="15.4" y="35.9"><title>2024-01-11 1063 金币</title></rect><rect fill="#57ad5b" height="4" rx="1" ry="1" width="4" x="15.4" y="41.300000000000004"><title>2024-01-12 1203 金币</title></rect><rect fill="#7bcb7e" height="4" rx="1" ry="1" width="4" x="15.4" y="46.699999999999996"><title>2024-01-13 849 金币</title></rect><rect fill="#6dc070" height="4" rx="1" ry="1" width="4" x="15.4" y="52.1"><title>2024-01-14 1122 金币</title></rect><rect fill="#57ac5b" height="4" rx="1" ry="1" width="4" x="20.8" y="19.7"><title>2024-01-15 1244 金币</title></rect><rect fill="#549F57" height="4" rx="1" ry="1" width="4" x="20.8" y="25.1"><title>2024-01-16 1257 金币</title></rect><rect fill="#73c576" height="4" rx="1" ry="1" width="4" x="20.8" y="30.5"><title>2024-01-17 993 金币</title></rect><rect fill="#58ae5c" height="4" rx="1" ry="1" width="4" x="20.8" y="35.9"><title>2024-01-18 1156 金币</title></rect><rect fill="#73c476" height="4" rx="1" ry="1" width="4" x="20.8" y="41.300000000000004"><title>2024-01-19 1009 金币</title></rect><rect fill="#72c475" height="4" rx="1" ry="1" width="4" x="20.8" y="46.699999999999996"><title>2024-01-20 1028 金币</title></rect><rect fill="#57ac5b" height="4" rx="1" ry="1" width="4" x="20.8" y="52.1"><title>2024-01-21 1238 金币</title></rect><rect fill="#6dc070" height="4" rx="1" ry="1" width="4" x="26.200000000000003" y="19.7"><title>2024-01-22 1119 金币</title></rect><rect fill="#549F57" height="4" rx="1" ry="1" width="4" x="26.200000000000003" y="25.1"><title>2024-01-23 1278 金币</title></rect><rect fill="#6cbf6f" height="4" rx="1" ry="1" width="4" x="26.200000000000003" y="30.5"><title>2024-01-24 1133 金币</title></rect><rect fill="#57ad5b" height="4" rx="1" ry="1" width="4" x="26.200000000000003" y="35.9"><title>2024-01-25 1209 金币</title></rect><rect fill="#6dc070" height="4" rx="1" ry="1" width="4" x="26.200000000000003" y="41.300000000000004"><title>2024-01-26 1117 金币</title></rect><rect fill="#58ae5c" height="4" rx="1" ry="1" width="4" x="26.200000000000003" y="46.699999999999996"><title>2024-01-27 1164 金币</title></rect><rect fill="#72c475" height="4" rx="1" ry="1" width="4" x="26.200000000000003" y="52.1"><title>2024-01-28 1026 金币</title></rect><rect fill="#72c475" height="4" rx="1" ry="1" width="4" x="31.6" y="19.7"><title>2024-01-29 1018 金币</title></rect><rect fill="#6dc070" height="4" rx="1" ry="1" width="4" x="31.6" y="25.1"><title>2024-01-30 1123 金币</title></rect><rect fill="#58ad5c" height="4" rx="1" ry="1" width="4" x="31.6" y="30.5"><title>2024-01-31 1189 金币</title></rect><rect fill="#6fc172" height="4" rx="1" ry="1" width="4" x="31.6" y="35.9"><title>2024-02-01 1085 金币</title></rect><rect fill="#74c677" height="4" rx="1" ry="1" width="4" x="31.6" y="41.300000000000004"><title>2024-02-02 973 金币</title></rect><rect fill="#70c373" height="4" rx="1" ry="1" width="4" x="31.6" y="46.699999999999996"><title>2024-02-03 1052 金币</title></rect><rect fill="#58ad5c" height="4" rx="1" ry="1" width="4" x="31.6" y="52.1"><title>2024-02-04 1182 金币</title></rect><text fill="#000000" style="font-size:2.5px; font-family:Arial" x="37.0" y="18.3">Feb</text><rect fill="#6cbf6f" height="4" rx="1" ry="1" width="4" x="37.0" y="19.7"><title>2024-02-05 1144 金币</title></rect><rect fill="#549F57" height="4" rx="1" ry="1" width="4" x="37.0" y="25.1"><title>2024-02-06 1283 金币</title></rect><rect fill="#549F57" height="4" rx="1" ry="1" width="4" x="37.0" y="30.5"><title>2024-02-07 1378 金币</title></rect><rect fill="#57ad5b" height="4" rx="1" ry="1" width="4" x="37.0" y="35.9"><title>2024-02-08 1203 金币</title></rect><rect fill="#76c779" height="4" rx="1" ry="1" width="4" x="37.0" y="41.300000000000004"><title>2024-02-09 936 金币</title></rect><rect fill="#77c87a" height="4" rx="1" ry="1" width="4" x="37.0" y="46.699999999999996"><title>2024-02-10 922 金币</title></rect><rect fill="#58ad5c" height="4" rx="1" ry="1" width="4" x="37.0" y="52.1"><title>2024-02-11 1182 金币</title></rect><rect fill="#70c373" height="4" rx="1" ry="1" width="4" x="42.4" y="19.7"><title>2024-02-12 1052 金币</title></rect><rect fill="#78c97b" height="4" rx="1" ry="1" width="4" x="42.4" y="25.1"><title>2024-02-13 907 金币</title></rect><rect fill="#75c678" height="4" rx="1" ry="1" width="4" x="42.4" y="30.5"><title>2024-02-14 970 金币</title></rect><rect fill="#549F57" height="4" rx="1" ry="1" width="4" x="42.4" y="35.9"><title>2024-02-15 1460 金币</title></rect><rect fill="#71c374" height="4" rx="1" ry="1" width="4" x="42.4" y="41.300000000000004"><title>2024-02-16 1047 金币</title></rect><rect fill="#57ad5b" height="4" rx="1" ry="1" width="4" x="42.4" y="46.699999999999996"><title>2024-02-17 1219 金币</title></rect><rect fill="#7bcb7e" height="4" rx="1" ry="1" width="4" x="42.4" y="52.1"><title>2024-02-18 844 金币</title></rect><rect fill="#6ec171" height="4" rx="1" ry="1" width="4" x="47.8" y="19.7"><title>2024-02-19 1099 金币</title></rect><rect fill="#70c273" height="4" rx="1" ry="1" width="4" x="47.8" y="25.1"><title>2024-02-20 1067 金币</title></rect><rect fill="#6dc070" height="4" rx="1" ry="1" width="4" x="47.8" y="30.5"><title>2024-02-21 1126 金币</title></rect><rect fill="#6dc070" height="4" rx="1" ry="1" width="4" x="47.8" y="35.9"><title>2024-02-22 1119 金币</title></rect><rect fill="#73c576" height="4" rx="1" ry="1" width="4" x="47.8" y="41.300000000000004"><title>2024-02-23 999 金币</title></rect><rect fill="#57ac5b" height="4" rx="1" ry="1" width="4" x="47.8" y="46.699999999999996"><title>2024-02-24 1226 金币</title></rect><rect fill="#549F57" height="4" rx="1" ry="1" width="4" x="47.8" y="52.1"><title>2024-02-25 1264 金币</title></rect><rect fill="#71c374" height="4" rx="1" ry="1" width="4" x="53.199999999999996" y="19.7"><title>2024-02-26 1047 金币</title></rect><rect fill="#58ad5b" height="4" rx="1" ry="1" width="4" x="53.199999999999996" y="25.1"><title>2024-02-27 1197 金币</title></rect><rect fill="#6fc272" height="4" rx="1" ry="1" width="4" x="53.199999999999996" y="30.5"><title>2024-02-28 1080 金币</title></rect><rect fill="#57ad5b" height="4" rx="1" ry="1" width="4" x="53.199999999999996" y="35.9"><title>2024-02-29 1208 金币</title></rect><rect fill="#58ad5b" height="4" rx="1" ry="1" width="4" x="53.199999999999996" y="41.300000000000004"><title>2024-03-01 1193 金币</title></rect><rect fill="#58ad5c" height="4" rx="1" ry="1" width="4" x="53.199999999999996" y="46.699999999999996"><title>2024-03-02 1183 金币</title></rect><rect fill="#6ec071" height="4" rx="1" ry="1" width="4" x="53.199999999999996" y="52.1"><title>2024-03-03 1108 金币</title></rect><text fill="#000000" style="font-size:2.5px; font-family:Arial" x="58.599999999999994" y="18.3">Mar</text><rect fill="#58ae5c" height="4" rx="1" ry="1" width="4" x="58.599999999999994" y="19.7"><title>2024-03-04 1147 金币</title></rect><rect fill="#72c475" height="4" rx="1" ry="1" width="4" x="58.599999999999994" y="25.1"><title>2024-03-05 1014 金币</title></rect><rect fill="#71c474" height="4" rx="1" ry="1" width="4" x="58.599999999999994" y="30.5"><title>2024-03-06 1032 金币</title></rect><rect fill="#6dbf70" height="4" rx="1" ry="1" width="4" x="58.599999999999994" y="35.9"><title>2024-03-07 1130 金币</title></rect><rect fill="#6cbf70" height="4" rx="1" ry="1" width="4" x="58.599999999999994" y="41.300000000000004"><title>2024-03-08 1131 金币</title></rect><rect fill="#70c273" height="4" rx="1" ry="1" width="4" x="58.599999999999994" y="46.699999999999996"><title>2024-03-09 1064 金币</title></rect><rect fill="#71c374" height="4" rx="1" ry="1" width="4" x="58.599999999999994" y="52.1"><title>2024-03-10 1045 金币</title></rect><rect fill="#58ae5c" height="4" rx="1" ry="1" width="4" x="63.99999999999999" y="19.7"><title>2024-03-11 1162 金币</title></rect><rect fill="#58ad5c" height="4" rx="1" ry="1" width="4" x="63.99999999999999" y="25.1"><title>2024-03-12 1181 金币</title></rect><rect fill="#57ac5b" height="4" rx="1" ry="1" width="4" x="63.99999999999999" y="30.5"><title>2024-03-13 1241 金币</title></rect><rect fill="#6fc272" height="4" rx="1" ry="1" width="4" x="63.99999999999999" y="35.9"><title>2024-03-14 1081 金币</title></rect><rect fill="#549F57" height="4" rx="1" ry="1" width="4" x="63.99999999999999" y="41.300000000000004"><title>2024-03-15 1309 金币</title></rect><rect fill="#549F57" height="4" rx="1" ry="1" width="4" x="63.99999999999999" y="46.699999999999996"><title>2024-03-16 1273 金币</title></rect><rect fill="#57ac5b" height="4" rx="1" ry="1" width="4" x="63.99999999999999" y="52.1"><title>2024-03-17 1237 金币</title></rect><rect fill="#58ae5c" height="4" rx="1" ry="1" width="4" x="69.39999999999999" y="19.7"><title>2024-03-18 1162 金币</title></rect><rect fill="#549F57" height="4" rx="1" ry="1" width="4" x="69.39999999999999" y="25.1"><title>2024-03-19 1490 金币</title></rect><rect fill="#58ad5c" height="4" rx="1" ry="1" width="4" x="69.39999999999999" y="30.5"><title>2024-03-20 1171 金币</title></rect><rect fill="#58ad5b" height="4" rx="1" ry="1" width="4" x="69.39999999999999" y="35.9"><title>2024-03-21 1196 金币</title></rect><rect fill="#58ad5c" height="4" rx="1" ry="1" width="4" x="69.39999999999999" y="41.300000000000004"><title>2024-03-22 1173 金币</title></rect><rect fill="#58ad5b" height="4" rx="1" ry="1" width="4" x="69.39999999999999" y="46.699999999999996"><title>2024-03-23 1190 金币</title></rect><rect fill="#57ac5b" height="4" rx="1" ry="1" width="4" x="69.39999999999999" y="52.1"><title>2024-03-24 1229 金币</title></rect><rect fill="#58ae5c" height="4" rx="1" ry="1" width="4" x="74.8" y="19.7"><title>2024-03-25 1152 金币</title></rect><rect fill="#57ad5b" height="4" rx="1" ry="1" width="4" x="74.8" y="25.1"><title>2024-03-26 1200 金币</title></rect><rect fill="#57ad5b" height="4" rx="1" ry="1" width="4" x="74.8" y="30.5"><title>2024-03-27 1222 金币</title></rect><rect fill="#71c474" height="4" rx="1" ry="1" width="4" x="74.8" y="35.9"><title>2024-03-28 1033 金币</title></rect><rect fill="#549F57" height="4" rx="1" ry="1" width="4" x="74.8" y="41.300000000000004"><title>2024-03-29 1370 金币</title></rect><rect fill="#58ad5c" height="4" rx="1" ry="1" width="4" x="74.8" y="46.699999999999996"><title>2024-03-30 1178 金币</title></rect><rect fill="#6ec171" height="4" rx="1" ry="1" width="4" x="74.8" y="52.1"><title>2024-03-31 1094 金币</title></rect><text fill="#000000" style="font-size:2.5px; font-family:Arial" x="80.2" y="18.3">Apr</text><rect fill="#6cbf6f" height="4" rx="1" ry="1" width="4" x="80.2" y="19.7"><title>2024-04-01 1133 金币</title></rect><rect fill="#57ad5b" height="4" rx="1" ry="1" width="4" x="80.2" y="25.1"><title>2024-04-02 1206 金币</title></rect><rect fill="#57ac5b" height="4" rx="1" ry="1" width="4" x="80.2" y="30.5"><title>2024-04-03 1241 金币</title></rect><rect fill="#549F57" height="4" rx="1" ry="1" width="4" x="80.2" y="35.9"><title>2024-04-04 1338 金币</title></rect><rect fill="#72c475" height="4" rx="1" ry="1" width="4" x="80.2" y="41.300000000000004"><title>2024-04-05 1014 金币</title></rect><rect fill="#58ad5c" height="4" rx="1" ry="1" width="4" x="80.2" y="46.699999999999996"><title>2024-04-06 1172 金币</title></rect><rect fill="#6cbf6f" height="4" rx="1" ry="1" width="4" x="80.2" y="52.1"><title>2024-04-07 1134 金币</title></rect><rect fill="#58ae5c" height="4" rx="1" ry="1" width="4" x="85.60000000000001" y="19.7"><title>2024-04-08 1148 金币</title></rect><rect fill="#6dc071" height="4" rx="1" ry="1" width="4" x="85.60000000000001" y="25.1"><title>2024-04-09 1111 金币</title></rect><rect fill="#57ac5b" height="4" rx="1" ry="1" width="4" x="85.60000000000001" y="30.5"><title>2024-04-10 1230 金币</title></rect><rect fill="#549F57" height="4" rx="1" ry="1" width="4" x="85.60000000000001" y="35.9"><title>2024-04-11 1298 金币</title></rect><rect fill="#70c273" height="4" rx="1" ry="1" width="4" x="85.60000000000001" y="41.300000000000004"><title>2024-04-12 1058 金币</title></rect><rect fill="#70c373" height="4" rx="1" ry="1" width="4" x="85.60000000000001" y="46.699999999999996"><title>2024-04-13 1055 金币</title></rect><rect fill="#6cbf6f" height="4" rx="1" ry="1" width="4" x="85.60000000000001" y="52.1"><title>2024-04-14 1133 金币</title></rect><rect fill="#71c374" height="4" rx="1" ry="1" width="4" x="91.00000000000001" y="19.7"><title>2024-04-15 1036 金币</title></rect><rect fill="#58ad5c" height="4" rx="1" ry="1" width="4" x="91.00000000000001" y="25.1"><title>2024-04-16 1174 金币</title></rect><rect fill="#58ad5b" height="4" rx="1" ry="1" width="4" x="91.00000000000001" y="30.5"><title>2024-04-17 1194 金币</title></rect><rect fill="#58ad5c" height="4" rx="1" ry="1" width="4" x="91.00000000000001" y="35.9"><title>2024-04-18 1173 金币</title></rect><rect fill="#549F57" height="4" rx="1" ry="1" width="4" x="91.00000000000001" y="41.300000000000004"><title>2024-04-19 1294 金币</title></rect><rect fill="#57ac5b" height="4" rx="1" ry="1" width="4" x="91.00000000000001" y="46.699999999999996"><title>2024-04-20 1248 金币</title></rect><rect fill="#549F57" height="4" rx="1" ry="1" width="4" x="91.00000000000001" y="52.1"><title>2024-04-21 1281 金币</title></rect><rect fill="#549F57" height="4" rx="1" ry="1" width="4" x="96.40000000000002" y="19.7"><title>2024-04-22 1337 金币</title></rect><rect fill="#549F57" height="4" rx="1" ry="1" width="4" x="96.40000000000002" y="25.1"><title>2024-04-23 1457 金币</title></rect><rect fill="#73c476" height="4" rx="1" ry="1" width="4" x="96.40000000000002" y="30.5"><title>2024-04-24 1009 金币</title></rect><rect fill="#549F57" height="4" rx="1" ry="1" width="4" x="96.40000000000002" y="35.9"><title>2024-04-25 1396 金币</title></rect><rect fill="#549F57" height="4" rx="1" ry="1" width="4" x="96.40000000000002" y="41.300000000000004"><title>2024-04-26 1300 金币</title></rect><rect fill="#57ad5b" height="4" rx="1" ry="1" width="4" x="96.40000000000002" y="46.699999999999996"><title>2024-04-27 1214 金币</title></rect><rect fill="#57ac5b" height="4" rx="1" ry="1" width="4" x="96.40000000000002" y="52.1"><title>2024-04-28 1229 金币</title></rect><rect fill="#58ae5c" height="4" rx="1" ry="1" width="4" x="101.80000000000003" y="19.7"><title>2024-04-29 1158 金币</title></rect><rect fill="#57ac5b" height="4" rx="1" ry="1" width="4" x="101.80000000000003" y="25.1"><title>2024-04-30 1230 金币</title></rect><rect fill="#58ad5c" height="4" rx="1" ry="1" width="4" x="101.80000000000003" y="30.5"><title>2024-05-01 1188 金币</title></rect><rect fill="#549F57" height="4" rx="1" ry="1" width="4" x="101.80000000000003" y="35.9"><title>2024-05-02 1280 金币</title></rect><rect fill="#549F57" height="4" rx="1" ry="1" width="4" x="101.80000000000003" y="41.300000000000004"><title>2024-05-03 1294 金币</title></rect><rect fill="#549F57" height="4" rx="1" ry="1" width="4" x="101.80000000000003" y="46.699999999999996"><title>2024-05-04 1352 金币</title></rect><rect fill="#71c474" height="4" rx="1" ry="1" width="4" x="101.80000000000003" y="52.1"><title>2024-05-05 1033 金币</title></rect><text fill="#000000" style="font-size:2.5px; font-family:Arial" x="107.20000000000003" y="18.3">May</text><rect fill="#70c273" height="4" rx="1" ry="1" width="4" x="107.20000000000003" y="19.7"><title>2024-05-06 1066 金币</title></rect><rect fill="#6dc070" height="4" rx="1" ry="1" width="4" x="107.20000000000003" y="25.1"><title>2024-05-07 1129 金币</title></rect><rect fill="#58ae5c" height="4" rx="1" ry="1" width="4" x="107.20000000000003" y="30.5"><title>2024-05-08 1150 金币</title></rect><rect fill="#75c678" height="4" rx="1" ry="1" width="4" x="107.20000000000003" y="35.9"><title>2024-05-09 961 金币</title></rect><rect fill="#70c273" height="4" rx="1" ry="1" width="4" x="107.20000000000003" y="41.300000000000004"><title>2024-05-10 1059 金币</title></rect><rect fill="#6cbf6f" height="4" rx="1" ry="1" width="4" x="107.20000000000003" y="46.699999999999996"><title>2024-05-11 1143 金币</title></rect><rect fill="#57ad5b" height="4" rx="1" ry="1" width="4" x="107.20000000000003" y="52.1"><title>2024-05-12 1202 金币</title></rect><rect fill="#6fc272" height="4" rx="1" ry="1" width="4" x="112.60000000000004" y="19.7"><title>2024-05-13 1073 金币</title></rect><rect fill="#7aca7d" height="4" rx="1" ry="1" width="4" x="112.60000000000004" y="25.1"><title>2024-05-14 858 金币</title></rect><rect fill="#58ae5c" height="4" rx="1" ry="1" width="4" x="112.60000000000004" y="30.5"><title>2024-05-15 1151 金币</title></rect><rect fill="#58ad5c" height="4" rx="1" ry="1" width="4" x="112.60000000000004" y="35.9"><title>2024-05-16 1185 金币</title></rect><rect fill="#6dc070" height="4" rx="1" ry="1" width="4" x="112.60000000000004" y="41.300000000000004"><title>2024-05-17 1129 金币</title></rect><rect fill="#6dc070" height="4" rx="1" ry="1" width="4" x="112.60000000000004" y="46.699999999999996"><title>2024-05-18 1124 金币</title></rect><rect fill="#57ac5b" height="4" rx="1" ry="1" width="4" x="112.60000000000004" y="52.1"><title>2024-05-19 1232 金币</title></rect><rect fill="#57ad5b" height="4" rx="1" ry="1" width="4" x="118.00000000000004" y="19.7"><title>2024-05-20 1201 金币</title></rect><rect fill="#73c576" height="4" rx="1" ry="1" width="4" x="118.00000000000004" y="25.1"><title>2024-05-21 994 金币</title></rect><rect fill="#57ac5b" height="4" rx="1" ry="1" width="4" x="118.00000000000004" y="30.5"><title>2024-05-22 1226 金币</title></rect><rect fill="#6ec171" height="4" rx="1" ry="1" width="4" x="118.00000000000004" y="35.9"><title>2024-05-23 1103 金币</title></rect><rect fill="#6ec171" height="4" rx="1" ry="1" width="4" x="118.00000000000004" y="41.300000000000004"><title>2024-05-24 1092 金币</title></rect><rect fill="#70c374" height="4" rx="1" ry="1" width="4" x="118.00000000000004" y="46.699999999999996"><title>2024-05-25 1051 金币</title></rect><rect fill="#87d48a" height="4" rx="1" ry="1" width="4" x="118.00000000000004" y="52.1"><title>2024-05-26 614 金币</title></rect><rect fill="#6cbf6f" height="4" rx="1" ry="1" width="4" x="123.40000000000005" y="19.7"><title>2024-05-27 1144 金币</title></rect><rect fill="#6dc070" height="4" rx="1" ry="1" width="4" x="123.40000000000005" y="25.1"><title>2024-05-28 1113 金币</title></rect><rect fill="#76c779" height="4" rx="1" ry="1" width="4" x="123.40000000000005" y="30.5"><title>2024-05-29 949 金币</title></rect><rect fill="#549F57" height="4" rx="1" ry="1" width="4" x="123.40000000000005" y="35.9"><title>2024-05-30 1274 金币</title></rect><rect fill="#549F57" height="4" rx="1" ry="1" width="4" x="123.40000000000005" y="41.300000000000004"><title>2024-05-31 1286 金币</title></rect><rect fill="#6dc070" height="4" rx="1" ry="1" width="4" x="123.40000000000005" y="46.699999999999996"><title>2024-06-01 1121 金币</title></rect><rect fill="#6dc070" height="4" rx="1" ry="1" width="4" x="123.40000000000005" y="52.1"><title>2024-06-02 1114 金币</title></rect><text fill="#000000" style="font-size:2.5px; font-family:Arial" x="128.80000000000004" y="18.3">Jun</text><rect fill="#549F57" height="4" rx="1" ry="1" width="4" x="128.80000000000004" y="19.7"><title>2024-06-03 1286 金币</title></rect><rect fill="#6cbf6f" height="4" rx="1" ry="1" width="4" x="128.80000000000004" y="25.1"><title>2024-06-04 1136 金币</title></rect><rect fill="#549F57" height="4" rx="1" ry="1" width="4" x="128.80000000000004" y="30.5"><title>2024-06-05 1277 金币</title></rect><rect fill="#549F57" height="4" rx="1" ry="1" width="4" x="128.80000000000004" y="35.9"><title>2024-06-06 1301 金币</title></rect><rect fill="#58ae5c" height="4" rx="1" ry="1" width="4" x="128.80000000000004" y="41.300000000000004"><title>2024-06-07 1160 金币</title></rect><rect fill="#57ad5b" height="4" rx="1" ry="1" width="4" x="128.80000000000004" y="46.699999999999996"><title>2024-06-08 1208 金币</title></rect><rect fill="#549F57" height="4" rx="1" ry="1" width="4" x="128.80000000000004" y="52.1"><title>2024-06-09 1254 金币</title></rect><rect fill="#70c374" height="4" rx="1" ry="1" width="4" x="134.20000000000005" y="19.7"><title>2024-06-10 1050 金币</title></rect><rect fill="#549F57" height="4" rx="1" ry="1" width="4" x="134.20000000000005" y="25.1"><title>2024-06-11 1400 金币</title></rect><rect fill="#6cbf6f" height="4" rx="1" ry="1" width="4" x="134.20000000000005" y="30.5"><title>2024-06-12 1140 金币</title></rect><rect fill="#6fc272" height="4" rx="1" ry="1" width="4" x="134.20000000000005" y="35.9"><title>2024-06-13 1077 金币</title></rect><rect fill="#549F57" height="4" rx="1" ry="1" width="4" x="134.20000000000005" y="41.300000000000004"><title>2024-06-14 1272 金币</title></rect><rect fill="#58ad5c" height="4" rx="1" ry="1" width="4" x="134.20000000000005" y="46.699999999999996"><title>2024-06-15 1168 金币</title></rect><rect fill="#549F57" height="4" rx="1" ry="1" width="4" x="134.20000000000005" y="52.1"><title>2024-06-16 1258 金币</title></rect><rect fill="#549F57" height="4" rx="1" ry="1" width="4" x="139.60000000000005" y="19.7"><title>2024-06-17 1488 金币</title></rect><rect fill="#78c97b" height="4" rx="1" ry="1" width="4" x="139.60000000000005" y="25.1"><title>2024-06-18 894 金币</title></rect><rect fill="#549F57" height="4" rx="1" ry="1" width="4" x="139.60000000000005" y="30.5"><title>2024-06-19 1272 金币</title></rect><rect fill="#6fc272" height="4" rx="1" ry="1" width="4" x="139.60000000000005" y="35.9"><title>2024-06-20 1074 金币</title></rect><rect fill="#58ae5c" height="4" rx="1" ry="1" width="4" x="139.60000000000005" y="41.300000000000004"><title>2024-06-21 1158 金币</title></rect><rect fill="#57ac5b" height="4" rx="1" ry="1" width="4" x="139.60000000000005" y="46.699999999999996"><title>2024-06-22 1238 金币</title></rect><rect fill="#58ae5c" height="4" rx="1" ry="1" width="4" x="139.60000000000005" y="52.1"><title>2024-06-23 1156 金币</title></rect><rect fill="#7ecd81" height="4" rx="1" ry="1" width="4" x="145.00000000000006" y="19.7"><title>2024-06-24 784 金币</title></rect><rect fill="#71c475" height="4" rx="1" ry="1" width="4" x="145.00000000000006" y="25.1"><title>2024-06-25 1031 金币</title></rect><rect fill="#549F57" height="4" rx="1" ry="1" width="4" x="145.00000000000006" y="30.5"><title>2024-06-26 1293 金币</title></rect><rect fill="#6cbf6f" height="4" rx="1" ry="1" width="4" x="145.00000000000006" y="35.9"><title>2024-06-27 1135 金币</title></rect><rect fill="#58ae5c" height="4" rx="1" ry="1" width="4" x="145.00000000000006" y="41.300000000000004"><title>2024-06-28 1158 金币</title></rect><rect fill="#57ad5b" height="4" rx="1" ry="1" width="4" x="145.00000000000006" y="46.699999999999996"><title>2024-06-29 1212 金币</title></rect><rect fill="#549F57" height="4" rx="1" ry="1" width="4" x="145.00000000000006" y="52.1"><title>2024-06-30 1273 金币</title></rect><text fill="#000000" style="font-size:2.5px; font-family:Arial" x="150.40000000000006" y="18.3">Jul</text><rect fill="#76c879" height="4" rx="1" ry="1" width="4" x="150.40000000000006" y="19.7"><title>2024-07-01 932 金币</title></rect><rect fill="#6fc172" height="4" rx="1" ry="1" width="4" x="150.40000000000006" y="25.1"><title>2024-07-02 1084 金币</title></rect><rect fill="#58ad5b" height="4" rx="1" ry="1" width="4" x="150.40000000000006" y="30.5"><title>2024-07-03 1191 金币</title></rect><rect fill="#6ec171" height="4" rx="1" ry="1" width="4" x="150.40000000000006" y="35.9"><title>2024-07-04 1095 金币</title></rect><rect fill="#72c475" height="4" rx="1" ry="1" width="4" x="150.40000000000006" y="41.300000000000004"><title>2024-07-05 1026 金币</title></rect><rect fill="#57ac5b" height="4" rx="1" ry="1" width="4" x="150.40000000000006" y="46.699999999999996"><title>2024-07-06 1234 金币</title></rect><rect fill="#58ad5c" height="4" rx="1" ry="1" width="4" x="150.40000000000006" y="52.1"><title>2024-07-07 1179 金币</title></rect><rect fill="#70c273" height="4" rx="1" ry="1" width="4" x="155.80000000000007" y="19.7"><title>2024-07-08 1060 金币</title></rect><rect fill="#549F57" height="4" rx="1" ry="1" width="4" x="155.80000000000007" y="25.1"><title>2024-07-09 1297 金币</title></rect><rect fill="#6dc070" height="4" rx="1" ry="1" width="4" x="155.80000000000007" y="30.5"><title>2024-07-10 1114 金币</title></rect><rect fill="#549F57" height="4" rx="1" ry="1" width="4" x="155.80000000000007" y="35.9"><title>2024-07-11 1398 金币</title></rect><rect fill="#77c87a" height="4" rx="1" ry="1" width="4" x="155.80000000000007" y="41.300000000000004"><title>2024-07-12 912 金币</title></rect><rect fill="#549F57" height="4" rx="1" ry="1" width="4" x="155.80000000000007" y="46.699999999999996"><title>2024-07-13 1270 金币</title></rect><rect fill="#549F57" height="4" rx="1" ry="1" width="4" x="155.80000000000007" y="52.1"><title>2024-07-14 1255 金币</title></rect><rect fill="#57ad5b" height="4" rx="1" ry="1" width="4" x="161.20000000000007" y="19.7"><title>2024-07-15 1219 金币</title></rect><rect fill="#6cbf6f" height="4" rx="1" ry="1" width="4" x="161.20000000000007" y="25.1"><title>2024-07-16 1145 金币</title></rect><rect fill="#57ac5b" height="4" rx="1" ry="1" width="4" x="161.20000000000007" y="30.5"><title>2024-07-17 1234 金币</title></rect><rect fill="#549F57" height="4" rx="1" ry="1" width="4" x="161.20000000000007" y="35.9"><title>2024-07-18 1258 金币</title></rect><rect fill="#74c577" height="4" rx="1" ry="1" width="4" x="161.20000000000007" y="41.300000000000004"><title>2024-07-19 984 金币</title></rect><rect fill="#57ad5b" height="4" rx="1" ry="1" width="4" x="161.20000000000007" y="46.699999999999996"><title>2024-07-20 1203 金币</title></rect><rect fill="#57ad5b" height="4" rx="1" ry="1" width="4" x="161.20000000000007" y="52.1"><title>2024-07-21 1215 金币</title></rect><rect fill="#57ad5b" height="4" rx="1" ry="1" width="4" x="166.60000000000008" y="19.7"><title>2024-07-22 1208 金币</title></rect><rect fill="#58ae5c" height="4" rx="1" ry="1" width="4" x="166.60000000000008" y="25.1"><title>2024-07-23 1167 金币</title></rect><rect fill="#73c476" height="4" rx="1" ry="1" width="4" x="166.60000000000008" y="30.5"><title>2024-07-24 1009 金币</title></rect><rect fill="#549F57" height="4" rx="1" ry="1" width="4" x="166.60000000000008" y="35.9"><title>2024-07-25 1309 金币</title></rect><rect fill="#74c677" height="4" rx="1" ry="1" width="4" x="166.60000000000008" y="41.300000000000004"><title>2024-07-26 977 金币</title></rect><rect fill="#6fc272" height="4" rx="1" ry="1" width="4" x="166.60000000000008" y="46.699999999999996"><title>2024-07-27 1079 金币</title></rect><rect fill="#6ec171" height="4" rx="1" ry="1" width="4" x="166.60000000000008" y="52.1"><title>2024-07-28 1097 金币</title></rect><rect fill="#77c87a" height="4" rx="1" ry="1" width="4" x="172.00000000000009" y="19.7"><title>2024-07-29 919 金币</title></rect><rect fill="#71c374" height="4" rx="1" ry="1" width="4" x="172.00000000000009" y="25.1"><title>2024-07-30 1045 金币</title></rect><rect fill="#6fc272" height="4" rx="1" ry="1" width="4" x="172.00000000000009" y="30.5"><title>2024-07-31 1073 金币</title></rect><rect fill="#58ad5c" height="4" rx="1" ry="1" width="4" x="172.00000000000009" y="35.9"><title>2024-08-01 1174 金币</title></rect><rect fill="#57ad5b" height="4" rx="1" ry="1" width="4" x="172.00000000000009" y="41.300000000000004"><title>2024-08-02 1220 金币</title></rect><rect fill="#58ad5c" height="4" rx="1" ry="1" width="4" x="172.00000000000009" y="46.699999999999996"><title>2024-08-03 1186 金币</title></rect><rect fill="#70c273" height="4" rx="1" ry="1" width="4" x="172.00000000000009" y="52.1"><title>2024-08-04 1069 金币</title></rect><text fill="#000000" style="font-size:2.5px; font-family:Arial" x="177.4000000000001" y="18.3">Aug</text><rect fill="#549F57" height="4" rx="1" ry="1" width="4" x="177.4000000000001" y="19.7"><title>2024-08-05 1298 金币</title></rect><rect fill="#71c374" height="4" rx="1" ry="1" width="4" x="177.4000000000001" y="25.1"><title>2024-08-06 1041 金币</title></rect><rect fill="#58ad5c" height="4" rx="1" ry="1" width="4" x="177.4000000000001" y="30.5"><title>2024-08-07 1188 金币</title></rect><rect fill="#57ad5b" height="4" rx="1" ry="1" width="4" x="177.4000000000001" y="35.9"><title>2024-08-08 1207 金币</title></rect><rect fill="#58ad5b" height="4" rx="1" ry="1" width="4" x="177.4000000000001" y="41.300000000000004"><title>2024-08-09 1195 金币</title></rect><rect fill="#74c677" height="4" rx="1" ry="1" width="4" x="177.4000000000001" y="46.699999999999996"><title>2024-08-10 973 金币</title></rect><rect fill="#7aca7d" height="4" rx="1" ry="1" width="4" x="177.4000000000001" y="52.1"><title>2024-08-11 867 金币</title></rect><rect fill="#57ad5b" height="4" rx="1" ry="1" width="4" x="182.8000000000001" y="19.7"><title>2024-08-12 1209 金币</title></rect><rect fill="#6ec171" height="4" rx="1" ry="1" width="4" x="182.8000000000001" y="25.1"><title>2024-08-13 1104 金币</title></rect><rect fill="#70c273" height="4" rx="1" ry="1" width="4" x="182.8000000000001" y="30.5"><title>2024-08-14 1069 金币</title></rect><rect fill="#58ad5c" height="4" rx="1" ry="1" width="4" x="182.8000000000001" y="35.9"><title>2024-08-15 1183 金币</title></rect><rect fill="#73c576" height="4" rx="1" ry="1" width="4" x="182.8000000000001" y="41.300000000000004"><title>2024-08-16 1006 金币</title></rect><rect fill="#57ad5b" height="4" rx="1" ry="1" width="4" x="182.8000000000001" y="46.699999999999996"><title>2024-08-17 1216 金币</title></rect><rect fill="#70c273" height="4" rx="1" ry="1" width="4" x="182.8000000000001" y="52.1"><title>2024-08-18 1064 金币</title></rect><rect fill="#57ad5b" height="4" rx="1" ry="1" width="4" x="188.2000000000001" y="19.7"><title>2024-08-19 1206 金币</title></rect><rect fill="#58ad5c" height="4" rx="1" ry="1" width="4" x="188.2000000000001" y="25.1"><title>2024-08-20 1186 金币</title></rect><rect fill="#6fc272" height="4" rx="1" ry="1" width="4" x="188.2000000000001" y="30.5"><title>2024-08-21 1073 金币</title></rect><rect fill="#6dc070" height="4" rx="1" ry="1" width="4" x="188.2000000000001" y="35.9"><title>2024-08-22 1120 金币</title></rect><rect fill="#549F57" height="4" rx="1" ry="1" width="4" x="188.2000000000001" y="41.300000000000004"><title>2024-08-23 1257 金币</title></rect><rect fill="#6ec071" height="4" rx="1" ry="1" width="4" x="188.2000000000001" y="46.699999999999996"><title>2024-08-24 1109 金币</title></rect><rect fill="#71c374" height="4" rx="1" ry="1" width="4" x="188.2000000000001" y="52.1"><title>2024-08-25 1039 金币</title></rect><rect fill="#58ad5c" height="4" rx="1" ry="1" width="4" x="193.6000000000001" y="19.7"><title>2024-08-26 1183 金币</title></rect><rect fill="#6dc071" height="4" rx="1" ry="1" width="4" x="193.6000000000001" y="25.1"><title>2024-08-27 1111 金币</title></rect><rect fill="#6cbf6f" height="4" rx="1" ry="1" width="4" x="193.6000000000001" y="30.5"><title>2024-08-28 1141 金币</title></rect><rect fill="#6fc172" height="4" rx="1" ry="1" width="4" x="193.6000000000001" y="35.9"><title>2024-08-29 1089 金币</title></rect><rect fill="#6fc272" height="4" rx="1" ry="1" width="4" x="193.6000000000001" y="41.300000000000004"><title>2024-08-30 1077 金币</title></rect><rect fill="#549F57" height="4" rx="1" ry="1" width="4" x="193.6000000000001" y="46.699999999999996"><title>2024-08-31 1266 金币</title></rect><rect fill="#57ad5b" height="4" rx="1" ry="1" width="4" x="193.6000000000001" y="52.1"><title>2024-09-01 1202 金币</title></rect><text fill="#000000" style="font-size:2.5px; font-family:Arial" x="199.0000000000001" y="18.3">Sep</text><rect fill="#549F57" height="4" rx="1" ry="1" width="4" x="199.0000000000001" y="19.7"><title>2024-09-02 1299 金币</title></rect><rect fill="#70c273" height="4" rx="1" ry="1" width="4" x="199.0000000000001" y="25.1"><title>2024-09-03 1058 金币</title></rect><rect fill="#57ad5b" height="4" rx="1" ry="1" width="4" x="199.0000000000001" y="30.5"><title>2024-09-04 1207 金币</title></rect><rect fill="#57ad5b" height="4" rx="1" ry="1" width="4" x="199.0000000000001" y="35.9"><title>2024-09-05 1199 金币</title></rect><rect fill="#6fc272" height="4" rx="1" ry="1" width="4" x="199.0000000000001" y="41.300000000000004"><title>2024-09-06 1073 金币</title></rect><rect fill="#58ad5c" height="4" rx="1" ry="1" width="4" x="199.0000000000001" y="46.699999999999996"><title>2024-09-07 1185 金币</title></rect><rect fill="#57ad5b" height="4" rx="1" ry="1" width="4" x="199.0000000000001" y="52.1"><title>2024-09-08 1199 金币</title></rect><rect fill="#549F57" height="4" rx="1" ry="1" width="4" x="204.40000000000012" y="19.7"><title>2024-09-09 1427 金币</title></rect><rect fill="#6cbf6f" height="4" rx="1" ry="1" width="4" x="204.40000000000012" y="25.1"><title>2024-09-10 1141 金币</title></rect><rect fill="#6ec171" height="4" rx="1" ry="1" width="4" x="204.40000000000012" y="30.5"><title>2024-09-11 1102 金币</title></rect><rect fill="#58ad5c" height="4" rx="1" ry="1" width="4" x="204.40000000000012" y="35.9"><title>2024-09-12 1185 金币</title></rect><rect fill="#6ec071" height="4" rx="1" ry="1" width="4" x="204.40000000000012" y="41.300000000000004"><title>2024-09-13 1107 金币</title></rect><rect fill="#6ec171" height="4" rx="1" ry="1" width="4" x="204.40000000000012" y="46.699999999999996"><title>2024-09-14 1104 金币</title></rect><rect fill="#72c475" height="4" rx="1" ry="1" width="4" x="204.40000000000012" y="52.1"><title>2024-09-15 1016 金币</title></rect><rect fill="#76c779" height="4" rx="1" ry="1" width="4" x="209.80000000000013" y="19.7"><title>2024-09-16 934 金币</title></rect><rect fill="#549F57" height="4" rx="1" ry="1" width="4" x="209.80000000000013" y="25.1"><title>2024-09-17 1401 金币</title></rect><rect fill="#6cbf6f" height="4" rx="1" ry="1" width="4" x="209.80000000000013" y="30.5"><title>2024-09-18 1145 金币</title></rect><rect fill="#58ae5c" height="4" rx="1" ry="1" width="4" x="209.80000000000013" y="35.9"><title>2024-09-19 1146 金币</title></rect><rect fill="#549F57" height="4" rx="1" ry="1" width="4" x="209.80000000000013" y="41.300000000000004"><title>2024-09-20 1595 金币</title></rect><rect fill="#80ce83" height="4" rx="1" ry="1" width="4" x="209.80000000000013" y="46.699999999999996"><title>2024-09-21 752 金币</title></rect><rect fill="#58ae5c" height="4" rx="1" ry="1" width="4" x="209.80000000000013" y="52.1"><title>2024-09-22 1167 金币</title></rect><rect fill="#549F57" height="4" rx="1" ry="1" width="4" x="215.20000000000013" y="19.7"><title>2024-09-23 1378 金币</title></rect><rect fill="#57ac5b" height="4" rx="1" ry="1" width="4" x="215.20000000000013" y="25.1"><title>2024-09-24 1243 金币</title></rect><rect fill="#57ac5b" height="4" rx="1" ry="1" width="4" x="215.20000000000013" y="30.5"><title>2024-09-25 1240 金币</title></rect><rect fill="#70c273" height="4" rx="1" ry="1" width="4" x="215.20000000000013" y="35.9"><title>2024-09-26 1060 金币</title></rect><rect fill="#549F57" height="4" rx="1" ry="1" width="4" x="215.20000000000013" y="41.300000000000004"><title>2024-09-27 1278 金币</title></rect><rect fill="#73c576" height="4" rx="1" ry="1" width="4" x="215.20000000000013" y="46.699999999999996"><title>2024-09-28 1008 金币</title></rect><rect fill="#6fc272" height="4" rx="1" ry="1" width="4" x="215.20000000000013" y="52.1"><title>2024-09-29 1075 金币</title></rect><rect fill="#57ad5b" height="4" rx="1" ry="1" width="4" x="220.60000000000014" y="19.7"><title>2024-09-30 1216 金币</title></rect><rect fill="#6fc272" height="4" rx="1" ry="1" width="4" x="220.60000000000014" y="25.1"><title>2024-10-01 1081 金币</title></rect><rect fill="#6dc070" height="4" rx="1" ry="1" width="4" x="220.60000000000014" y="30.5"><title>2024-10-02 1120 金币</title></rect><rect fill="#71c374" height="4" rx="1" ry="1" width="4" x="220.60000000000014" y="35.9"><title>2024-10-03 1044 金币</title></rect><rect fill="#70c273" height="4" rx="1" ry="1" width="4" x="220.60000000000014" y="41.300000000000004"><title>2024-10-04 1069 金币</title></rect><rect fill="#73c576" height="4" rx="1" ry="1" width="4" x="220.60000000000014" y="46.699999999999996"><title>2024-10-05 991 金币</title></rect><rect fill="#6fc172" height="4" rx="1" ry="1" width="4" x="220.60000000000014" y="52.1"><title>2024-10-06 1084 金币</title></rect><text fill="#000000" style="font-size:2.5px; font-family:Arial" x="226.00000000000014" y="18.3">Oct</text><rect fill="#549F57" height="4" rx="1" ry="1" width="4" x="226.00000000000014" y="19.7"><title>2024-10-07 1285 金币</title></rect><rect fill="#57ac5b" height="4" rx="1" ry="1" width="4" x="226.00000000000014" y="25.1"><title>2024-10-08 1253 金币</title></rect><rect fill="#72c475" height="4" rx="1" ry="1" width="4" x="226.00000000000014" y="30.5"><title>2024-10-09 1028 金币</title></rect><rect fill="#57ac5b" height="4" rx="1" ry="1" width="4" x="226.00000000000014" y="35.9"><title>2024-10-10 1232 金币</title></rect><rect fill="#58ae5c" height="4" rx="1" ry="1" width="4" x="226.00000000000014" y="41.300000000000004"><title>2024-10-11 1162 金币</title></rect><rect fill="#549F57" height="4" rx="1" ry="1" width="4" x="226.00000000000014" y="46.699999999999996"><title>2024-10-12 1263 金币</title></rect><rect fill="#70c273" height="4" rx="1" ry="1" width="4" x="226.00000000000014" y="52.1"><title>2024-10-13 1062 金币</title></rect><rect fill="#6ec171" height="4" rx="1" ry="1" width="4" x="231.40000000000015" y="19.7"><title>2024-10-14 1104 金币</title></rect><rect fill="#549F57" height="4" rx="1" ry="1" width="4" x="231.40000000000015" y="25.1"><title>2024-10-15 1277 金币</title></rect><rect fill="#57ad5b" height="4" rx="1" ry="1" width="4" x="231.40000000000015" y="30.5"><title>2024-10-16 1208 金币</title></rect><rect fill="#57ac5b" height="4" rx="1" ry="1" width="4" x="231.40000000000015" y="35.9"><title>2024-10-17 1229 金币</title></rect><rect fill="#58ad5c" height="4" rx="1" ry="1" width="4" x="231.40000000000015" y="41.300000000000004"><title>2024-10-18 1183 金币</title></rect><rect fill="#58ae5c" height="4" rx="1" ry="1" width="4" x="231.40000000000015" y="46.699999999999996"><title>2024-10-19 1159 金币</title></rect><rect fill="#57ad5b" height="4" rx="1" ry="1" width="4" x="231.40000000000015" y="52.1"><title>2024-10-20 1203 金币</title></rect><rect fill="#76c779" height="4" rx="1" ry="1" width="4" x="236.80000000000015" y="19.7"><title>2024-10-21 943 金币</title></rect><rect fill="#77c87a" height="4" rx="1" ry="1" width="4" x="236.80000000000015" y="25.1"><title>2024-10-22 930 金币</title></rect><rect fill="#58ad5c" height="4" rx="1" ry="1" width="4" x="236.80000000000015" y="30.5"><title>2024-10-23 1173 金币</title></rect><rect fill="#6fc172" height="4" rx="1" ry="1" width="4" x="236.80000000000015" y="35.9"><title>2024-10-24 1085 金币</title></rect><rect fill="#6ec071" height="4" rx="1" ry="1" width="4" x="236.80000000000015" y="41.300000000000004"><title>2024-10-25 1108 金币</title></rect><rect fill="#57ad5b" height="4" rx="1" ry="1" width="4" x="236.80000000000015" y="46.699999999999996"><title>2024-10-26 1208 金币</title></rect><rect fill="#58ad5c" height="4" rx="1" ry="1" width="4" x="236.80000000000015" y="52.1"><title>2024-10-27 1182 金币</title></rect><rect fill="#6fc272" height="4" rx="1" ry="1" width="4" x="242.20000000000016" y="19.7"><title>2024-10-28 1074 金币</title></rect><rect fill="#549F57" height="4" rx="1" ry="1" width="4" x="242.20000000000016" y="25.1"><title>2024-10-29 1357 金币</title></rect><rect fill="#58ae5c" height="4" rx="1" ry="1" width="4" x="242.20000000000016" y="30.5"><title>2024-10-30 1149 金币</title></rect><rect fill="#70c374" height="4" rx="1" ry="1" width="4" x="242.20000000000016" y="35.9"><title>2024-10-31 1050 金币</title></rect><rect fill="#57ac5b" height="4" rx="1" ry="1" width="4" x="242.20000000000016" y="41.300000000000004"><title>2024-11-01 1244 金币</title></rect><rect fill="#91d994" height="4" rx="1" ry="1" width="4" x="242.20000000000016" y="46.699999999999996"><title>2024-11-02 442 金币</title></rect><rect fill="#6dc070" height="4" rx="1" ry="1" width="4" x="242.20000000000016" y="52.1"><title>2024-11-03 1120 金币</title></rect><text fill="#000000" style="font-size:2.5px; font-family:Arial" x="247.60000000000016" y="18.3">Nov</text><rect fill="#71c475" height="4" rx="1" ry="1" width="4" x="247.60000000000016" y="19.7"><title>2024-11-04 1030 金币</title></rect><rect fill="#58ad5c" height="4" rx="1" ry="1" width="4" x="247.60000000000016" y="25.1"><title>2024-11-05 1182 金币</title></rect><rect fill="#72c475" height="4" rx="1" ry="1" width="4" x="247.60000000000016" y="30.5"><title>2024-11-06 1027 金币</title></rect><rect fill="#58ad5c" height="4" rx="1" ry="1" width="4" x="247.60000000000016" y="35.9"><title>2024-11-07 1177 金币</title></rect><rect fill="#58ae5c" height="4" rx="1" ry="1" width="4" x="247.60000000000016" y="41.300000000000004"><title>2024-11-08 1166 金币</title></rect><rect fill="#57ad5b" height="4" rx="1" ry="1" width="4" x="247.60000000000016" y="46.699999999999996"><title>2024-11-09 1205 金币</title></rect><rect fill="#6fc272" height="4" rx="1" ry="1" width="4" x="247.60000000000016" y="52.1"><title>2024-11-10 1081 金币</title></rect><rect fill="#57ad5b" height="4" rx="1" ry="1" width="4" x="253.00000000000017" y="19.7"><title>2024-11-11 1205 金币</title></rect><rect fill="#74c677" height="4" rx="1" ry="1" width="4" x="253.00000000000017" y="25.1"><title>2024-11-12 981 金币</title></rect><rect fill="#549F57" height="4" rx="1" ry="1" width="4" x="253.00000000000017" y="30.5"><title>2024-11-13 1297 金币</title></rect><rect fill="#73c576" height="4" rx="1" ry="1" width="4" x="253.00000000000017" y="35.9"><title>2024-11-14 996 金币</title></rect><rect fill="#57ac5b" height="4" rx="1" ry="1" width="4" x="253.00000000000017" y="41.300000000000004"><title>2024-11-15 1237 金币</title></rect><rect fill="#58ad5c" height="4" rx="1" ry="1" width="4" x="253.00000000000017" y="46.699999999999996"><title>2024-11-16 1173 金币</title></rect><rect fill="#549F57" height="4" rx="1" ry="1" width="4" x="253.00000000000017" y="52.1"><title>2024-11-17 1269 金币</title></rect><rect fill="#79ca7c" height="4" rx="1" ry="1" width="4" x="258.40000000000015" y="19.7"><title>2024-11-18 880 金币</title></rect><rect fill="#57ad5b" height="4" rx="1" ry="1" width="4" x="258.40000000000015" y="25.1"><title>2024-11-19 1209 金币</title></rect><rect fill="#6ec171" height="4" rx="1" ry="1" width="4" x="258.40000000000015" y="30.5"><title>2024-11-20 1097 金币</title></rect><rect fill="#6ec071" height="4" rx="1" ry="1" width="4" x="258.40000000000015" y="35.9"><title>2024-11-21 1106 金币</title></rect><rect fill="#58ae5c" height="4" rx="1" ry="1" width="4" x="258.40000000000015" y="41.300000000000004"><title>2024-11-22 1163 金币</title></rect><rect fill="#57ac5b" height="4" rx="1" ry="1" width="4" x="258.40000000000015" y="46.699999999999996"><title>2024-11-23 1232 金币</title></rect><rect fill="#6ec171" height="4" rx="1" ry="1" width="4" x="258.40000000000015" y="52.1"><title>2024-11-24 1103 金币</title></rect><rect fill="#549F57" height="4" rx="1" ry="1" width="4" x="263.8000000000001" y="19.7"><title>2024-11-25 1315 金币</title></rect><rect fill="#57ad5b" height="4" rx="1" ry="1" width="4" x="263.8000000000001" y="25.1"><title>2024-11-26 1219 金币</title></rect><rect fill="#6ec171" height="4" rx="1" ry="1" width="4" x="263.8000000000001" y="30.5"><title>2024-11-27 1101 金币</title></rect><rect fill="#58ae5c" height="4" rx="1" ry="1" width="4" x="263.8000000000001" y="35.9"><title>2024-11-28 1153 金币</title></rect><rect fill="#57ad5b" height="4" rx="1" ry="1" width="4" x="263.8000000000001" y="41.300000000000004"><title>2024-11-29 1199 金币</title></rect><rect fill="#7bcb7e" height="4" rx="1" ry="1" width="4" x="263.8000000000001" y="46.699999999999996"><title>2024-11-30 847 金币</title></rect><rect fill="#70c273" height="4" rx="1" ry="1" width="4" x="263.8000000000001" y="52.1"><title>2024-12-01 1067 金币</title></rect><text fill="#000000" style="font-size:2.5px; font-family:Arial" x="269.2000000000001" y="18.3">Dec</text><rect fill="#549F57" height="4" rx="1" ry="1" width="4" x="269.2000000000001" y="19.7"><title>2024-12-02 1334 金币</title></rect><rect fill="#6fc172" height="4" rx="1" ry="1" width="4" x="269.2000000000001" y="25.1"><title>2024-12-03 1085 金币</title></rect><rect fill="#549F57" height="4" rx="1" ry="1" width="4" x="269.2000000000001" y="30.5"><title>2024-12-04 1755 金币</title></rect><rect fill="#92da94" height="4" rx="1" ry="1" width="4" x="269.2000000000001" y="35.9"><title>2024-12-05 435 金币</title></rect><rect fill="#7aca7d" height="4" rx="1" ry="1" width="4" x="269.2000000000001" y="41.300000000000004"><title>2024-12-06 868 金币</title></rect><rect fill="#77c87a" height="4" rx="1" ry="1" width="4" x="269.2000000000001" y="46.699999999999996"><title>2024-12-07 915 金币</title></rect><rect fill="#6dc071" height="4" rx="1" ry="1" width="4" x="269.2000000000001" y="52.1"><title>2024-12-08 1110 金币</title></rect><rect fill="#76c779" height="4" rx="1" ry="1" width="4" x="274.6000000000001" y="19.7"><title>2024-12-09 949 金币</title></rect><rect fill="#549F57" height="4" rx="1" ry="1" width="4" x="274.6000000000001" y="25.1"><title>2024-12-10 1365 金币</title></rect><rect fill="#77c87a" height="4" rx="1" ry="1" width="4" x="274.6000000000001" y="30.5"><title>2024-12-11 917 金币</title></rect><rect fill="#58ad5b" height="4" rx="1" ry="1" width="4" x="274.6000000000001" y="35.9"><title>2024-12-12 1191 金币</title></rect><rect fill="#549F57" height="4" rx="1" ry="1" width="4" x="274.6000000000001" y="41.300000000000004"><title>2024-12-13 1307 金币</title></rect><rect fill="#72c475" height="4" rx="1" ry="1" width="4" x="274.6000000000001" y="46.699999999999996"><title>2024-12-14 1019 金币</title></rect><rect fill="#6cbf70" height="4" rx="1" ry="1" width="4" x="274.6000000000001" y="52.1"><title>2024-12-15 1131 金币</title></rect><rect fill="#6dbf70" height="4" rx="1" ry="1" width="4" x="280.00000000000006" y="19.7"><title>2024-12-16 1130 金币</title></rect><rect fill="#6ec171" height="4" rx="1" ry="1" width="4" x="280.00000000000006" y="25.1"><title>2024-12-17 1101 金币</title></rect><rect fill="#6ec171" height="4" rx="1" ry="1" width="4" x="280.00000000000006" y="30.5"><title>2024-12-18 1097 金币</title></rect><rect fill="#6dc070" height="4" rx="1" ry="1" width="4" x="280.00000000000006" y="35.9"><title>2024-12-19 1114 金币</title></rect><rect fill="#57ad5b" height="4" rx="1" ry="1" width="4" x="280.00000000000006" y="41.300000000000004"><title>2024-12-20 1220 金币</title></rect><rect fill="#549F57" height="4" rx="1" ry="1" width="4" x="280.00000000000006" y="46.699999999999996"><title>2024-12-21 1281 金币</title></rect><rect fill="#57ac5b" height="4" rx="1" ry="1" width="4" x="280.00000000000006" y="52.1"><title>2024-12-22 1238 金币</title></rect><rect fill="#6fc172" height="4" rx="1" ry="1" width="4" x="285.40000000000003" y="19.7"><title>2024-12-23 1088 金币</title></rect><rect fill="#a0e1a2" height="4" rx="1" ry="1" width="4" x="285.40000000000003" y="25.1"><title>2024-12-24 192 金币</title></rect><rect fill="#EBEDF0" height="4" rx="1" ry="1" width="4" x="285.40000000000003" y="30.5"><title>2024-12-25</title></rect><rect fill="#EBEDF0" height="4" rx="1" ry="1" width="4" x="285.40000000000003" y="35.9"><title>2024-12-26</title></rect><rect fill="#EBEDF0" height="4" rx="1" ry="1" width="4" x="285.40000000000003" y="41.300000000000004"><title>2024-12-27</title></rect><rect fill="#EBEDF0" height="4" rx="1" ry="1" width="4" x="285.40000000000003" y="46.699999999999996"><title>2024-12-28</title></rect><rect fill="#EBEDF0" height="4" rx="1" ry="1" width="4" x="285.40000000000003" y="52.1"><title>2024-12-29</title></rect><rect fill="#EBEDF0" height="4" rx="1" ry="1" width="4" x="290.8" y="19.7"><title>2024-12-30</title></rect><rect fill="#EBEDF0" height="4" rx="1" ry="1" width="4" x="290.8" y="25.1"><title>2024-12-31</title></rect></svg>